<svg id="Layer_1" data-name="Layer 1" xmlns="http://www.w3.org/2000/svg" viewBox="0 0 1000 1000"><defs><style>.cls-1{fill:#fff;}</style></defs><title>Artboard 1</title><circle class="cls-1" cx="269.48" cy="434.13" r="46.19" transform="translate(-188.34 207.21) rotate(-31.81)"/><path class="cls-1" d="M994.5,126.38,882.69,44.32C717.54,265.07,655.23,472.55,609,613.76h0c-58.34-300.87-133.4-392.45-262.66-428-69.3-19.07-160.18-13.09-236.2,27.78C43.42,249.37,5.5,282.45,5.5,282.45L82,397.76s72.6-48,96.55-60c57.26-28.61,95.7-29.39,139-14.43,103,35.58,147.8,205.42,214.74,632.33H672C705.13,794.47,764.88,439.24,994.5,126.38Z"/></svg>