<?xml version="1.0" encoding="utf-8"?>
<!-- Generator: Adobe Illustrator 21.0.0, SVG Export Plug-In . SVG Version: 6.00 Build 0)  -->
<svg version="1.1" id="Layer_1" xmlns="http://www.w3.org/2000/svg" xmlns:xlink="http://www.w3.org/1999/xlink" x="0px" y="0px"
	 viewBox="0 0 747 119" style="enable-background:new 0 0 747 119;" xml:space="preserve">
<style type="text/css">
	.st0{display:none;fill:#FFFFFF;stroke:#B3B3B3;stroke-miterlimit:10;}
	.st1{fill:#00A4FF;}
</style>
<rect x="-1984" y="-722.8" transform="matrix(-1 -1.224647e-16 1.224647e-16 -1 -2248 2267.4429)" class="st0" width="1720" height="3713"/>
<rect x="-1714.9" y="-722.8" transform="matrix(-1 -1.224647e-16 1.224647e-16 -1 -2247.8406 2267.4429)" class="st0" width="1182" height="3713"/>
<g>
	<g>
		<ellipse transform="matrix(0.8498 -0.527 0.527 0.8498 57.2175 315.1951)" class="st1" cx="581.8" cy="57.2" rx="5.1" ry="5.1"/>
		<path class="st1" d="M661.3,23.4l-12.3-9c-18.1,24.2-24.9,47-30,62.4c-0.1,0.2,0,0,0,0c-6.4-33-14.6-43-28.8-46.9
			c-7.6-2.1-17.6-1.4-25.9,3c-7.3,3.9-11.5,7.6-11.5,7.6l8.4,12.6c0,0,8-5.3,10.6-6.6c6.3-3.1,10.5-3.2,15.2-1.6
			c11.3,3.9,16.2,22.5,23.5,69.3h15.3C629.5,96.7,636.1,57.7,661.3,23.4z"/>
	</g>
	<g>
		<path class="st1" d="M73.3,87.2c-5.8,9.3-14.3,13.8-26,13.9c-8.1,0.2-15.1-2.7-20.9-8.5c-6-6-8.9-12.8-8.9-20.8
			c0-8.1,3.2-15.1,9.5-20.9c6.2-5.8,12.9-8.5,20.6-8.4c11.5,0.3,19.9,5.1,25.6,14.7l0.7,1.1h16.9l-3-6.8
			c-3.1-6.9-8.2-12.5-15.8-17.3c-7.7-4.8-16.1-7.1-24.8-6.9c-12.2,0.1-23,4.7-32.1,13.4C6.1,49.6,1.9,59.9,2,72.3
			c0.1,12.2,4.7,22.6,13.5,31c8.8,8.4,19.5,12.7,31.6,12.8c0.2,0,0.3,0,0.5,0c18.2,0,31.9-8.2,40.6-24.2l2.7-5.8h-17L73.3,87.2z"/>
		<path class="st1" d="M179.3,41.3c-8.2-8.6-18.3-13.2-30.2-13.6c-12.3-0.4-23,3.8-31.6,12.6c-8.7,8.7-13.2,19.4-13.2,31.7
			c0,11.7,4.1,22.1,12.3,30.7c8.1,8.5,18.1,13.1,29.8,13.5c0.5,0,1.1,0,1.6,0c10.7,0,20.2-3.7,28.2-11v9.1h15V72.4l0-0.5
			C191.6,60.2,187.6,49.9,179.3,41.3z M167.4,92.6c-5.8,6.1-12.5,8.8-20.7,8.4c-7.7-0.4-14.1-3.4-19.3-9.2
			c-5.2-5.7-7.8-12.7-7.7-20.6c0.1-8,2.9-14.6,8.5-20.2c5.6-5.6,12.2-8.3,20.1-8.3c7.5,0,14,2.8,19.3,8.3c5.5,5.8,8.2,12.3,8.4,20.1
			C176,79.4,173.2,86.5,167.4,92.6z"/>
		<path class="st1" d="M245.4,28.1c-9.1-0.3-17.9,3.1-24.4,9.5c-6.6,6.4-10.2,15-10.2,24.1v52.6l15.5,0l0.1-29.7c0,0,0-11.8,0-15.7
			c0.1-8.2,0.5-10.8,1.4-13.1c2.8-7.1,8.4-12.2,19.9-12.5l0-15.2L245.4,28.1z"/>
		<path class="st1" d="M435.4,39c-7.6-6.8-16.7-10.5-27.1-10.9c-12.1-0.4-22.7,3.9-31.5,12.7c-8.7,8.7-13.2,19.4-13.2,31.7
			c0,11.8,4.1,22.2,12.1,30.7c8.1,8.6,18.2,13.1,30,13.4c0.6,0,1.1,0,1.7,0c11.3,0,21.4-4.2,30.1-12.6c8.9-8.8,13.3-19.4,13-31.6V2
			h-15.1V39z M426.8,93c-5.7,6-12.5,8.8-20.7,8.4l0,0c-7.7-0.3-14-3.2-19.3-9.1c-5.3-5.8-8-12.8-7.8-20.6c0.1-8,2.9-14.6,8.5-20.2
			c5.5-5.5,12.1-8.3,19.6-8.3c0.2,0,0.3,0,0.5,0c7.6,0,13.9,2.7,19.3,8.3c5.5,5.8,8.2,12.3,8.4,20.1C435.4,79.9,432.7,86.9,426.8,93
			z"/>
		<path class="st1" d="M509.1,27.7c-12.1-0.4-22.7,3.8-31.5,12.7c-8.7,8.7-13.2,19.4-13.2,31.7c0,11.8,4.1,22.2,12.1,30.6
			c8.1,8.6,18.2,13.1,30,13.4c0.6,0,1.1,0,1.7,0c11.4,0,21.4-4.2,29.8-12.6c8.8-8.8,13.3-19.4,13.3-31.5c0-11.7-4.1-22.1-12.3-30.6
			C531,32.7,520.9,28.1,509.1,27.7z M527.5,92.6c-5.7,6-12.4,8.8-20.7,8.4l0,0c-7.7-0.3-14-3.2-19.3-9.1c-5.2-5.7-7.8-12.7-7.7-20.6
			c0.1-8,2.9-14.6,8.5-20.2c5.6-5.6,12-8.3,19.6-8.3c0.2,0,0.4,0,0.5,0c7.6,0,13.8,2.7,19.1,8.3c5.5,5.7,8.2,12.3,8.5,20.1
			C536.1,79.5,533.4,86.5,527.5,92.6z"/>
		<path class="st1" d="M307.7,27.4c-13.5,0-23.8,4.1-32.6,12.7c-9.1,9-13.6,20-13.3,32.6c0.1,11.8,4.7,22.2,13.6,31
			c8.6,8.4,18.8,12.6,30.1,12.6c0.2,0,0.4,0,0.6,0c9.2-0.1,17.6-2.9,25-8.1c7.5-5.3,12.9-12.6,16-21.6l1.1-3.1h-16.1l-0.6,1.3
			c-5.1,10.8-13.3,16.1-25.1,16.2c-7.4,0.1-13.9-2.2-19.7-7.2c-4.9-4.2-7.9-9.5-9.1-15.9l72,0.4l0-2.3c0.1-15.6-4.3-28-13-36.7
			C325.9,28.5,312.9,27.4,307.7,27.4z M277.9,63.5c1.7-5.9,4.8-10.6,9.3-14.3c5.4-4.4,11.7-6.5,18.7-6.4c7.1,0.1,13.3,2.4,18.4,6.6
			c4.4,3.7,7.4,8.4,9.1,14.1H277.9z"/>
		<path class="st1" d="M745.3,76c0.1-15.6-4.3-28-13-36.7c-10.7-10.7-23.7-11.9-28.9-11.9c0,0-0.1,0-0.1,0
			c-13.5,0-23.8,4.1-32.6,12.7c-9.1,9-13.6,20-13.3,32.6c0.1,11.8,4.7,22.2,13.6,31c8.6,8.4,18.8,12.6,30.1,12.6c0.2,0,0.4,0,0.6,0
			c9.2-0.1,17.6-2.9,25-8.1c6.5-4.6,11.4-10.7,14.6-18.1c0.5-1.1,1-2.3,1.4-3.5l1-3h-16.1l-0.6,1.3c-0.6,1.3-1.3,2.6-2.1,3.8
			c-5.2,8.2-12.7,12.3-23,12.4c-7.5,0.1-13.9-2.2-19.7-7.2c-4.9-4.2-7.9-9.5-9.1-15.9l72,0.4L745.3,76z M673.6,63.5
			c1.7-5.9,4.8-10.6,9.3-14.3c5.4-4.4,11.7-6.5,18.7-6.4c7.1,0.1,13.3,2.4,18.4,6.6c4.4,3.7,7.4,8.4,9.1,14.1H673.6z"/>
	</g>
</g>
</svg>
